<svg xmlns="http://www.w3.org/2000/svg" width="362" height="90.355" viewBox="0 0 362 90.355"><defs><style>.a{fill:#fd1a00;}</style></defs><g transform="translate(0)"><path class="a" d="M184.779,69.364c1.8-1.9,3.559-3.751,5.3-5.614.963-1.028,1.9-2.077,2.848-3.118.26-.285.535-.507,1.013-.231l-2.233,8.953c4.461-.09,8.826-.212,13.19-.256s8.722-.01,13.084-.01H231.2c4.361,0,8.723-.036,13.084.01,4.383.046,8.764.21,13.148.256,4.36.046,8.722.01,13.084.01h65.959c-.963-1.078-1.81-2.02-2.65-2.967-.66-.744-1.328-1.483-1.956-2.254-.14-.172-.123-.472-.224-.91,2.723.513,5.2,1.286,7.7,1.979,2.515.7,5.057,1.3,7.586,1.947,2.485.639,4.969,1.278,7.451,1.933,2.52.665,5.034,1.349,7.582,2.034l.033.6c-2.13.59-4.252,1.191-6.381,1.764-1.88.5-3.769.975-5.652,1.467-2.7.705-5.393,1.4-8.083,2.133-1.748.474-3.484,1-5.223,1.5-.576.168-1.15.355-1.608-.26l2.605-4.836H293.825c-6.578-.6-13.172-.184-19.758-.259-6.61-.076-13.221-.017-19.832-.017H193.36a5.435,5.435,0,0,1-.454.649c-1.591,1.7-3.2,3.376-4.784,5.075-.9.962-1.765,1.953-2.656,2.92a6.992,6.992,0,0,1-.66.553c-.464-.981.026-1.764.211-2.547.469-1.98,1.015-3.943,1.515-5.915a3.422,3.422,0,0,0,.007-.735h-4.212c-1.469,0-2.941-.064-4.407.01-10.76.542-21.527.141-32.291.266-5.246.6-10.52-.018-15.76.334-2.692.181-5.389-.031-8.05.267-2.005.224-4.016,0-5.985.275-1.5.206-3,.042-4.472.262-1.4.212-2.823.066-4.192.289a28.888,28.888,0,0,0-3.089.272c-1.374.39-2.77.094-4.148.453a29.63,29.63,0,0,1-3.905.34,23.071,23.071,0,0,0-3.857.5,1.951,1.951,0,0,1-.4.038,31.222,31.222,0,0,0-3.777.305c-1.665.329-3.365.353-5.025.757-1.426.347-2.925.386-4.387.6q-1.719.247-3.425.584c-1.218.238-2.426.528-3.64.786-2.3.489-4.605.95-6.9,1.464-1.771.4-3.531.844-5.289,1.3-1.713.44-3.416.918-5.126,1.372-3.718.987-7.382,2.16-11.122,3.08-1.842.453-3.672.994-5.521,1.433-1.64.39-3.305.678-4.962,1-1.441.276-2.886.533-4.329.8-.089.016-.179.022-.269.032a59.969,59.969,0,0,1-9.977.23A23.781,23.781,0,0,1,10.226,88.6a17.229,17.229,0,0,1-7-4.647A13.419,13.419,0,0,1,.653,78.726a18.124,18.124,0,0,1-.559-6.588A41.99,41.99,0,0,1,1.224,65.7a43.467,43.467,0,0,1,3.481-9.167A38.341,38.341,0,0,1,8.7,50.248c.717-.876,1.513-1.715,2.218-2.619q2.151-2.754,4.293-5.516c.767-.99,1.512-2,2.284-2.983,1.412-1.8,2.847-3.584,4.253-5.388,1.183-1.516,2.344-3.05,3.507-4.582,1.08-1.423,2.132-2.868,3.227-4.28,1.129-1.454,2.305-2.872,3.444-4.321,1.051-1.338,2.077-2.7,3.119-4.042,1.15-1.487,2.311-2.966,3.457-4.458,1.334-1.738,2.653-3.489,3.985-5.23q1.142-1.5,2.3-2.977c1-1.269,2-2.529,3.049-3.851H73.057c0,.337-.01.642,0,.946.089,2.225.037,4.468.325,6.668.185,1.41.038,2.821.258,4.2.238,1.5.04,3.015.3,4.466.227,1.279.038,2.547.243,3.788.26,1.583.064,3.191.308,4.741.194,1.23.043,2.455.246,3.649.277,1.63.051,3.285.306,4.88.2,1.277.034,2.548.247,3.786.265,1.539.065,3.1.3,4.606.223,1.456-.006,2.931.281,4.33a27.609,27.609,0,0,1,.217,3.793,2.475,2.475,0,0,1-.06.445H54.9V45.466H33.686c-.579.825-1.276,1.8-1.951,2.785-.578.845-1.1,1.731-1.7,2.561-1.044,1.451-2.132,2.869-3.194,4.308-1.245,1.688-2.435,3.419-3.732,5.065a28.551,28.551,0,0,0-3.5,5.672,16.713,16.713,0,0,0-1.666,5.72,10.147,10.147,0,0,0,1.624,6.515,7.878,7.878,0,0,0,3.974,2.8,13.867,13.867,0,0,0,4.994.864c.413-.005.826-.008,1.239,0a27.933,27.933,0,0,0,6.19-.535,20.146,20.146,0,0,0,2.14-.246,18.192,18.192,0,0,1,2.8-.33c1.324-.184,2.648-.383,3.96-.636,1.567-.3,3.12-.676,4.682-1.008,1.475-.314,2.954-.612,4.43-.924,1.562-.331,3.121-.673,4.683-1,1.606-.34,3.21-.689,4.821-1.005,1.223-.239,2.457-.422,3.682-.651,1.4-.26,2.784-.585,4.187-.8.706-.107,1.418-.131,2.133-.265,1.582-.3,3.226-.284,4.8-.618,1.755-.374,3.546-.394,5.3-.761a30.144,30.144,0,0,1,3.638-.311,28.165,28.165,0,0,0,4.536-.54,1.484,1.484,0,0,1,.275-.009c1.582-.092,3.165-.168,4.746-.282.712-.051,1.418-.2,2.13-.262a4.026,4.026,0,0,0,1.993-.275c.034-.021.09,0,.136-.007,1.49-.092,2.98-.193,4.471-.274a48.132,48.132,0,0,0,5.564-.329c1.6-.277,3.191-.015,4.751-.251,2.318-.35,4.661,0,6.947-.3,2.924-.382,5.836-.06,8.746-.231,9.383-.554,18.773-.142,28.16-.271,4.142-.585,8.305-.189,12.458-.26C176.315,69.308,180.493,69.364,184.779,69.364ZM54.563,15.89,42.728,32.665H54.563Z" transform="translate(0)"/><path class="a" d="M181.071,53.635a4.546,4.546,0,0,1-.865.491,3.094,3.094,0,0,1-.822.016H164.158a9.242,9.242,0,0,1,.161-2.412c.4-1.637.851-3.251,1.356-4.856a7.786,7.786,0,0,0,.344-1.695c.109-1.361-.566-1.889-2.226-2.332a16.244,16.244,0,0,0-4.194-.272c-2.016-.006-4.033,0-6.161,0l-4,11.517H134.321c4.308-12.674,8.592-25.273,12.905-37.96h1.294c10.1,0,20.194-.068,30.289.049a24.814,24.814,0,0,1,7.419,1.021,6.011,6.011,0,0,1,3.859,7.064,20.265,20.265,0,0,1-1.482,4.526,14.61,14.61,0,0,1-6.363,6.352c-.549.278-1.083.585-1.558.843.569.6,1.135,1.1,1.595,1.69a4.212,4.212,0,0,1,.457,3.659c-.569,2.588-1.367,5.126-2.03,7.694-.189.73-.232,1.5-.354,2.246A3.7,3.7,0,0,0,181.071,53.635Zm-8.706-26.469a5.257,5.257,0,0,0-1.445-.809,16.928,16.928,0,0,0-3.079-.3c-2.519-.039-5.038-.013-7.557-.013H159l-2.1,6.335h1.2q3.916,0,7.832,0a11.254,11.254,0,0,0,2.678-.254C171.035,31.542,172.367,29.94,172.365,27.166Z" transform="translate(-31.549 -3.784)"/><path class="a" d="M398.749,54.113H383.817c4.178-12.709,8.58-25.267,12.826-37.922h14.6a1.193,1.193,0,0,1-.008,1.1c-1.343,3.97-2.653,7.952-4,12.008h16.2l4.493-13.1h14.895c-1.17,4.373-2.886,8.481-4.22,12.711-1.329,4.21-2.914,8.338-4.344,12.518-1.443,4.215-2.832,8.449-4.253,12.7h-15c1.718-5.027,3.421-10.01,5.145-15.053H403.84Z" transform="translate(-90.151 -3.803)"/><path class="a" d="M307.894,16.21c.1,2.173.075,4.27.343,6.328.2,1.545.041,3.1.284,4.605.213,1.32.047,2.639.258,3.922.239,1.449.055,2.918.293,4.329s.041,2.822.259,4.2c.23,1.449.057,2.917.292,4.329s.042,2.823.26,4.2a36.294,36.294,0,0,1,.256,4.475,8.479,8.479,0,0,0,.336,1.5H294.2V50.666H278.293l-2.424,3.449h-15.92a12.187,12.187,0,0,1,1.815-2.668c1.4-1.862,2.857-3.68,4.285-5.521.767-.99,1.508-2,2.28-2.985,1.412-1.8,2.848-3.581,4.253-5.386,1.153-1.481,2.276-2.986,3.409-4.482s2.252-3.006,3.4-4.491c1.343-1.738,2.712-3.455,4.07-5.182q2.533-3.225,5.061-6.455a5.387,5.387,0,0,0,.406-.735ZM294.1,28.329c-3.028,4.286-5.944,8.344-8.8,12.556h8.8Z" transform="translate(-61.057 -3.807)"/><path class="a" d="M221.468,40.922c-1.51,4.4-3,8.735-4.477,13.045-1.043.224-12.617.285-14.968.078l12.861-37.83c.371-.034.637-.08.9-.08,9.635,0,19.27-.051,28.9.028a17.454,17.454,0,0,1,7.778,1.653A6.827,6.827,0,0,1,256.6,24.05a14.422,14.422,0,0,1-3.244,9.417,16.126,16.126,0,0,1-5.5,4.536,24.381,24.381,0,0,1-7.152,2.39,33.843,33.843,0,0,1-5.5.533c-4.129-.01-8.259,0-12.388,0Zm5.5-16.251L224.4,32.384c2.354,0,4.642,0,6.931,0a17.118,17.118,0,0,0,4.057-.265c1.989-.483,3.566-1.4,4.116-3.539.164-.641.38-1.269.562-1.87a2.843,2.843,0,0,0-3.038-2.012C233.69,24.624,230.344,24.671,226.966,24.671Z" transform="translate(-47.451 -3.786)"/><path class="a" d="M378.147,26.088h-13.6c-.354,1.077-.7,2.161-1.066,3.237-1.372,4.013-2.757,8.022-4.125,12.036q-2.115,6.21-4.214,12.426c-.027.08-.113.141-.24.291H340.03L349.5,26.072H335.865l3.388-9.888h41.968c.5.639-.017,1.23-.191,1.757C380.144,20.622,379.156,23.27,378.147,26.088Z" transform="translate(-78.888 -3.801)"/><path class="a" d="M119.482,54.1H104.517q6.433-18.954,12.825-37.784c1.058-.241,12.325-.311,15-.094Z" transform="translate(-24.549 -3.779)"/></g></svg>