<?xml version="1.0" standalone="no"?>
<!DOCTYPE svg PUBLIC "-//W3C//DTD SVG 20010904//EN"
 "http://www.w3.org/TR/2001/REC-SVG-20010904/DTD/svg10.dtd">
<svg version="1.0" xmlns="http://www.w3.org/2000/svg"
 width="512.000000pt" height="512.000000pt" viewBox="0 0 512.000000 512.000000"
 preserveAspectRatio="xMidYMid meet">
<metadata>
Created by potrace 1.14, written by Peter Selinger 2001-2017
</metadata>
<g transform="translate(0.000000,512.000000) scale(0.100000,-0.100000)"
fill="#000000" stroke="none">
<path d="M2960 5016 c-201 -68 -228 -71 -475 -42 -424 49 -585 66 -640 67 -43
2 -69 -7 -175 -58 -123 -60 -282 -136 -408 -195 -35 -16 -61 -33 -57 -36 4 -4
63 -23 132 -42 70 -20 128 -40 129 -45 2 -6 -123 -82 -278 -170 -154 -88 -288
-165 -297 -172 -13 -10 4 -12 87 -13 68 0 102 -4 102 -11 0 -6 -74 -123 -164
-259 l-165 -247 -11 -99 c-6 -55 -15 -135 -20 -179 -5 -44 -16 -143 -25 -220
-27 -234 -34 -309 -31 -313 2 -2 52 31 110 72 59 42 111 76 117 76 5 0 -5 -28
-24 -62 -19 -35 -50 -92 -69 -128 -20 -36 -65 -120 -102 -187 -36 -67 -66
-125 -66 -129 0 -4 36 -120 81 -258 106 -326 115 -356 120 -360 2 -3 56 96
119 220 63 123 119 224 124 224 5 0 6 -66 2 -152 -3 -84 -9 -238 -12 -343 l-6
-190 32 -75 c18 -41 42 -98 55 -125 12 -28 39 -91 60 -140 20 -50 45 -108 55
-130 10 -22 37 -85 60 -140 23 -55 48 -113 55 -130 42 -93 95 -224 95 -234 0
-6 4 -11 9 -11 4 0 11 71 15 158 10 247 18 336 27 320 5 -9 35 -89 68 -179 33
-90 108 -294 166 -454 59 -159 121 -330 138 -379 l32 -89 7 69 c3 38 10 149
14 247 4 116 11 176 17 174 6 -2 97 -146 201 -320 107 -178 193 -311 196 -303
3 8 48 54 100 102 52 49 138 129 190 179 159 153 367 345 372 345 2 0 33 -61
69 -135 35 -74 67 -134 70 -135 3 0 22 24 40 52 19 29 173 256 342 504 169
249 310 459 313 468 4 10 -16 74 -46 152 -29 74 -50 137 -47 141 6 5 176 -111
240 -164 16 -13 32 -23 37 -23 5 0 -61 125 -146 277 -85 152 -154 278 -154
280 0 11 35 -7 141 -72 66 -41 124 -75 129 -75 5 0 14 19 21 43 6 23 17 60 24
82 8 22 23 72 34 110 14 51 206 702 288 977 4 12 -32 58 -115 150 -67 73 -117
134 -113 136 8 3 57 -19 240 -105 51 -24 95 -42 98 -40 2 3 -3 22 -11 43 -8
22 -49 147 -91 279 -42 132 -93 290 -112 350 -19 61 -42 133 -50 160 -9 28
-23 57 -32 66 -9 9 -74 39 -146 68 -71 29 -149 62 -172 72 -24 10 -46 19 -50
19 -5 1 -26 9 -48 20 -22 11 -45 19 -52 20 -18 0 -26 19 -11 24 7 3 68 17 136
33 67 15 121 31 120 35 -4 10 -716 488 -727 488 -9 0 -79 -30 -189 -81 -35
-16 -65 -29 -68 -29 -2 0 -25 -10 -49 -21 -25 -12 -48 -19 -51 -17 -2 3 55 64
128 136 73 72 131 132 128 134 -3 2 -84 -23 -180 -56z m-626 -809 c87 -26 168
-47 181 -47 12 0 99 23 193 50 94 28 178 50 187 50 9 0 62 -32 118 -71 418
-290 503 -350 511 -362 6 -9 1 -48 -13 -108 -48 -205 -70 -298 -91 -387 l-23
-93 -130 -87 -131 -87 -38 -110 c-57 -164 -54 -159 -123 -166 -301 -33 -289
-32 -333 -10 -22 11 -43 25 -46 29 -3 5 46 76 109 157 63 82 113 150 111 153
-2 2 -42 -6 -88 -17 -234 -57 -209 -55 -348 -21 -91 22 -151 32 -156 27 -3 -3
44 -70 105 -150 79 -104 107 -148 98 -154 -33 -24 -98 -54 -106 -49 -8 5 -127
19 -279 33 -56 5 -52 2 -82 78 -16 40 -24 61 -45 123 -11 34 -28 70 -37 80 -8
9 -68 50 -132 91 -107 69 -117 78 -127 115 -36 137 -59 239 -59 259 0 10 -4
25 -9 35 -5 9 -17 53 -26 97 -9 44 -21 98 -28 119 -10 35 -9 40 8 53 11 8 151
106 310 218 260 183 294 204 325 201 19 -2 106 -24 194 -49z m-9 -1522 c129
-18 247 -20 336 -6 123 19 169 22 169 11 0 -18 -94 -229 -102 -230 -4 0 -8 35
-10 78 l-3 77 -200 0 -200 0 -3 -77 c-2 -43 -7 -78 -11 -78 -6 0 -76 146 -108
228 -6 15 -3 15 132 -3z m85 -230 c19 -62 25 -65 106 -65 68 0 75 2 83 23 5
12 17 40 26 62 l18 40 9 -54 c4 -30 13 -59 18 -66 5 -6 33 -17 62 -24 75 -19
94 -33 106 -84 7 -24 14 -51 17 -59 5 -11 -10 -22 -57 -41 -35 -14 -88 -36
-118 -50 -162 -73 -174 -76 -208 -57 -9 5 -33 15 -52 23 -19 8 -61 26 -93 41
-32 14 -60 26 -62 26 -3 0 -25 9 -50 21 -34 16 -45 27 -45 43 0 13 3 26 8 30
4 4 12 24 17 44 11 37 7 35 153 78 15 4 19 14 27 78 7 53 16 51 35 -9z"/>
<path d="M1857 3864 c-3 -4 46 -44 111 -88 64 -45 140 -98 167 -117 l50 -36 6
-126 c7 -169 16 -179 38 -42 6 39 16 93 21 120 4 28 13 77 19 111 6 33 11 74
11 91 0 28 -3 31 -42 36 -24 4 -72 11 -108 16 -36 6 -99 15 -140 21 -41 5 -86
12 -100 15 -14 3 -29 3 -33 -1z"/>
<path d="M3055 3855 c-49 -7 -121 -18 -160 -24 -38 -6 -89 -14 -112 -17 -24
-4 -43 -12 -43 -18 0 -11 21 -141 40 -241 5 -27 14 -90 21 -138 7 -48 16 -84
20 -80 4 4 11 71 16 148 l8 140 136 95 c75 52 152 107 170 122 40 32 38 32
-96 13z"/>
</g>
</svg>
